<?xml version="1.0" encoding="utf-8"?>
<!-- Generator: Adobe Illustrator 28.2.0, SVG Export Plug-In . SVG Version: 6.00 Build 0)  -->
<svg version="1.1" id="Layer_1" xmlns="http://www.w3.org/2000/svg" xmlns:xlink="http://www.w3.org/1999/xlink" x="0px" y="0px"
	 viewBox="0 0 1920 1080" style="enable-background:new 0 0 1920 1080;" xml:space="preserve">
<style type="text/css">
	.st0{fill:#1B1464;}
	.st1{fill:#0000FF;}
	.st2{fill:#FFFFFF;}
	.st3{fill:#0000FF;stroke:#000000;stroke-width:4;stroke-miterlimit:10;}
	.st4{font-family:'MyriadPro-Regular';}
	.st5{font-size:76.7512px;}
	.st6{fill:none;}
	.st7{stroke:#FFFFFF;stroke-width:6;stroke-miterlimit:10;}
	.st8{stroke:#0000FF;stroke-miterlimit:10;}
	.st9{font-size:46.9169px;}
	.st10{fill:none;stroke:#0000FF;stroke-width:4;stroke-miterlimit:10;}
	.st11{fill:none;stroke:#0000FF;stroke-width:5;stroke-miterlimit:10;}
</style>
<g>
	<circle class="st0" cx="858" cy="370" r="54.5"/>
	<path d="M858,316c29.78,0,54,24.22,54,54s-24.22,54-54,54s-54-24.22-54-54S828.22,316,858,316 M858,315c-30.38,0-55,24.62-55,55
		s24.62,55,55,55s55-24.62,55-55S888.38,315,858,315L858,315z"/>
</g>
<g>
	<path class="st0" d="M821,612.5c-48.25,0-87.5-39.25-87.5-87.5c0-48.25,39.25-87.5,87.5-87.5h74c48.25,0,87.5,39.25,87.5,87.5
		c0,48.25-39.25,87.5-87.5,87.5H821z"/>
	<path d="M895,438c47.97,0,87,39.03,87,87c0,47.97-39.03,87-87,87h-74c-47.97,0-87-39.03-87-87c0-47.97,39.03-87,87-87H895 M895,437
		h-74c-48.6,0-88,39.4-88,88v0c0,48.6,39.4,88,88,88h74c48.6,0,88-39.4,88-88v0C983,476.4,943.6,437,895,437L895,437z"/>
</g>
<g>
	<ellipse class="st1" cx="974.5" cy="524.5" rx="47" ry="50"/>
	<path class="st2" d="M974.5,477c24.54,0,44.5,21.31,44.5,47.5S999.04,572,974.5,572S930,550.69,930,524.5S949.96,477,974.5,477
		 M974.5,472c-27.34,0-49.5,23.51-49.5,52.5c0,28.99,22.16,52.5,49.5,52.5s49.5-23.51,49.5-52.5C1024,495.51,1001.84,472,974.5,472
		L974.5,472z"/>
</g>
<polyline class="st3" points="952.5,518.5 968.5,540.5 996.5,498.5 "/>
<text transform="matrix(0.9869 0 0 1 660.4297 715.1016)" class="st4 st5">ATTENDANCE</text>
<line class="st6" x1="536" y1="762" x2="653" y2="763"/>
<line class="st7" x1="581" y1="762" x2="477" y2="762"/>
<text transform="matrix(0.7026 0 0 1 704 762.2695)" class="st8 st4 st9">MANAGEMENT SYSTEM</text>
<line class="st10" x1="656" y1="750" x2="507" y2="750"/>
<line class="st11" x1="1098" y1="750.5" x2="1263" y2="750.5"/>
</svg>
